<?xml version="1.0" standalone="no"?>
<!DOCTYPE svg PUBLIC "-//W3C//DTD SVG 20010904//EN"
 "http://www.w3.org/TR/2001/REC-SVG-20010904/DTD/svg10.dtd">
<svg version="1.0" xmlns="http://www.w3.org/2000/svg"
 width="768.000000pt" height="768.000000pt" viewBox="0 0 768.000000 768.000000"
 preserveAspectRatio="xMidYMid meet">

<g transform="translate(0.000000,768.000000) scale(0.100000,-0.100000)"
fill="#000000" stroke="none">
<path d="M2503 7445 c-18 -8 -33 -21 -33 -30 0 -8 -4 -15 -10 -15 -5 0 -16
-13 -25 -30 -18 -35 -68 -62 -145 -80 -30 -7 -63 -16 -72 -21 -10 -5 -28 -9
-40 -9 -13 0 -42 -21 -74 -54 -41 -42 -68 -60 -125 -81 -62 -24 -85 -39 -144
-99 -89 -91 -145 -198 -145 -278 0 -49 -4 -59 -56 -128 -81 -109 -95 -147
-100 -265 -5 -125 -10 -142 -45 -161 -20 -10 -39 -37 -65 -92 -20 -42 -40 -84
-45 -94 -5 -11 2 -37 22 -79 33 -68 32 -34 13 -348 -5 -85 -3 -103 22 -175 14
-45 31 -86 36 -93 10 -12 8 -47 -11 -193 -31 -245 -33 -304 -28 -610 4 -173
11 -362 16 -419 13 -127 6 -141 -69 -141 -34 0 -50 -4 -54 -16 -3 -9 -6 -76
-6 -149 l0 -134 46 -38 c50 -41 77 -87 88 -146 8 -40 -2 -157 -13 -157 -4 0
-19 26 -35 58 -70 142 -170 260 -259 303 -118 57 -135 -41 -20 -112 102 -63
187 -142 220 -205 54 -101 92 -231 103 -352 16 -179 30 -296 45 -382 27 -154
39 -280 28 -291 -5 -5 -26 -10 -46 -11 -20 -1 -37 -6 -37 -11 0 -5 21 -7 51
-5 63 6 72 -2 88 -84 7 -35 17 -71 22 -80 5 -10 9 -27 9 -37 0 -19 5 -35 36
-106 7 -16 22 -59 34 -95 12 -35 34 -89 50 -120 16 -30 40 -80 54 -110 105
-226 302 -463 616 -740 40 -36 96 -85 124 -110 121 -108 332 -260 441 -316 28
-14 79 -40 115 -59 36 -18 79 -37 95 -40 17 -4 35 -11 40 -15 18 -13 79 -32
135 -43 80 -15 960 -14 1030 1 65 14 114 32 280 105 101 45 384 230 448 294 7
7 16 13 20 13 4 0 30 21 57 45 28 25 89 80 137 123 119 106 300 284 378 372
60 67 130 170 130 189 0 4 9 16 20 26 11 10 20 23 20 28 0 6 6 18 14 26 15 17
74 132 125 243 35 76 91 230 98 271 3 15 9 30 14 33 5 3 9 16 9 29 0 33 27
134 40 150 7 8 26 11 54 8 24 -3 52 -1 62 5 16 9 11 11 -24 10 -23 0 -49 5
-58 13 -17 14 -16 35 11 199 22 129 54 384 61 480 3 47 14 111 25 143 10 31
19 62 19 68 0 6 18 49 39 94 45 97 110 166 208 221 62 35 98 72 104 109 13 76
-91 53 -188 -42 -67 -66 -96 -107 -147 -204 -24 -46 -47 -83 -52 -82 -5 2 -10
41 -12 88 -3 101 12 138 82 202 25 23 46 48 47 55 4 58 0 268 -5 277 -4 6 -24
11 -44 11 -70 0 -67 -22 -51 382 17 452 18 879 0 968 -43 226 -92 327 -228
472 l-53 57 0 122 c0 98 -4 135 -21 183 -38 112 -82 186 -165 275 -55 59 -193
171 -212 171 -5 0 -15 7 -22 14 -15 19 -222 120 -370 181 -24 10 -59 31 -77
47 -10 9 -63 40 -118 70 -98 52 -140 73 -280 138 -38 18 -71 37 -73 42 -4 10
-52 11 -52 1 0 -5 40 -32 88 -61 83 -50 208 -152 186 -152 -6 0 -21 11 -34 25
-13 14 -28 25 -33 25 -6 0 -89 44 -186 98 -97 54 -195 106 -219 117 -31 13
-39 21 -30 27 9 6 4 8 -14 4 -17 -4 -32 -1 -42 9 -8 8 -28 15 -44 15 -16 0
-43 7 -58 15 -16 8 -39 15 -51 15 -23 0 -148 44 -167 59 -6 4 -47 19 -91 34
-111 36 -237 51 -370 43 -141 -9 -146 -9 -170 2 -31 14 -93 33 -154 48 -103
25 -221 12 -285 -30 -16 -10 -43 -18 -60 -19 -42 -1 -166 38 -246 78 -14 7
-38 15 -55 18 -16 3 -37 8 -45 11 -8 3 -30 -1 -47 -9z m358 -277 c6 -16 16
-28 21 -28 6 0 8 -6 5 -14 -3 -8 0 -16 6 -19 26 -10 186 -266 255 -407 40 -81
45 -115 17 -115 -28 0 -93 100 -189 292 -44 87 -87 174 -98 194 -10 20 -18 44
-18 53 0 9 -4 16 -8 16 -7 0 -42 63 -42 75 0 15 41 -24 51 -47z m-574 -63 c43
-60 52 -85 32 -85 -20 0 -108 95 -115 123 -6 26 -4 28 17 25 15 -2 38 -24 66
-63z m1505 -124 c99 -115 178 -237 178 -272 0 -22 -27 9 -87 102 -32 49 -82
123 -110 164 -29 41 -49 75 -45 74 4 0 33 -31 64 -68z m-1830 -18 c15 -34 19
-59 15 -104 -2 -33 -1 -62 4 -65 5 -3 7 -10 4 -15 -6 -9 -15 -3 -65 42 -58 54
-87 144 -57 181 32 40 71 25 99 -39z m3110 -243 c96 -92 151 -160 131 -160
-25 0 -126 102 -168 169 -10 16 -32 38 -75 75 -14 12 -30 28 -35 36 -19 32 46
-21 147 -120z m-776 -100 c37 -55 65 -102 62 -105 -6 -6 -65 72 -88 116 -7 13
-26 40 -42 59 -29 36 -38 61 -14 41 7 -6 44 -56 82 -111z m884 -810 c115 -12
180 -34 317 -106 139 -74 229 -154 305 -271 130 -198 181 -363 228 -738 14
-116 27 -195 61 -371 10 -57 6 -274 -6 -294 -3 -5 1 -10 7 -13 19 -6 -78 2
-142 13 -135 23 -880 34 -887 13 -2 -5 -66 -7 -142 -5 -88 3 -146 0 -157 -7
-18 -10 -17 -10 4 -11 12 0 22 -4 22 -10 0 -13 -33 -13 -47 1 -14 14 -129 7
-243 -14 -134 -25 -241 -64 -296 -108 -27 -21 -58 -45 -69 -54 -37 -26 -245
-41 -396 -27 -131 12 -132 12 -176 49 -25 21 -52 43 -61 48 -10 6 -28 17 -42
26 -14 9 -47 21 -75 28 -27 7 -59 16 -70 21 -22 8 -125 26 -245 42 -41 5 -142
12 -225 15 -82 2 -190 8 -240 13 -179 17 -641 6 -825 -20 -136 -20 -151 -20
-141 -2 6 10 6 23 0 34 -13 25 -13 213 0 271 11 46 15 71 25 152 15 126 60
420 72 480 22 107 72 262 110 342 43 90 133 213 205 278 102 92 340 191 487
201 120 9 438 -12 787 -52 88 -10 269 -18 490 -21 381 -5 378 -6 720 57 254
47 452 59 645 40z m-573 -1826 c-3 -3 -12 -4 -19 -1 -8 3 -5 6 6 6 11 1 17 -2
13 -5z m-1765 -138 c46 -8 108 -11 139 -9 38 4 65 1 85 -10 16 -8 41 -13 56
-10 29 5 188 -43 188 -57 0 -5 8 -11 18 -14 23 -8 57 -64 59 -100 l1 -29 -18
29 c-65 106 -151 138 -480 178 -199 25 -301 7 -525 -96 -60 -28 -119 -54 -130
-58 -53 -20 -105 -46 -105 -52 0 -5 -9 -8 -20 -8 -11 0 -20 -4 -20 -9 0 -4
-19 -21 -41 -36 -64 -42 -189 -145 -189 -156 0 -14 5 -12 74 30 73 45 148 81
169 81 11 0 13 -9 7 -40 -4 -22 -12 -45 -17 -52 -6 -7 -14 -35 -18 -63 -5 -27
-9 -56 -11 -63 -2 -9 4 -8 17 4 10 9 19 21 19 27 0 41 307 344 328 323 2 -3
-10 -24 -27 -48 -37 -53 -61 -126 -61 -193 0 -63 10 -125 20 -125 5 0 25 17
45 37 l37 37 19 -24 c52 -70 52 -69 98 -65 25 2 49 1 54 -2 5 -3 56 -5 113 -4
57 1 109 -1 115 -5 6 -3 29 -7 51 -8 38 -2 43 1 69 43 16 24 31 53 35 63 7 22
41 23 65 2 24 -22 35 -12 42 36 6 44 -10 116 -36 167 -27 52 -108 126 -178
161 l-64 32 50 -6 c163 -20 311 -128 390 -285 47 -92 59 -97 50 -20 l-7 61 30
0 c25 0 32 6 42 33 l12 32 14 -65 c19 -85 22 -315 5 -405 -16 -87 -55 -181
-90 -218 -31 -34 -111 -79 -166 -95 -83 -23 -237 -31 -505 -27 -300 6 -486 18
-625 42 -49 8 -103 17 -120 20 -36 5 -101 38 -133 67 -43 38 -47 50 -78 251
-11 73 -16 478 -5 500 5 11 18 42 28 70 29 81 73 107 228 132 93 16 797 14
897 -1z m2963 -3 c76 -10 150 -40 176 -69 65 -74 86 -344 49 -619 -31 -230
-41 -251 -136 -298 -87 -44 -282 -74 -532 -82 -92 -4 -201 -8 -242 -11 -41 -3
-91 -6 -110 -5 -19 0 -69 0 -111 0 -121 0 -288 20 -354 41 -39 13 -79 36 -113
66 -95 83 -127 198 -127 461 0 137 3 165 16 179 16 15 17 15 24 -5 5 -15 15
-21 37 -21 30 0 31 -1 25 -40 -5 -42 8 -64 21 -33 15 39 77 140 110 182 65 81
199 152 312 165 l55 7 -63 -31 c-77 -37 -160 -113 -193 -177 -20 -41 -24 -62
-24 -138 1 -98 20 -167 36 -130 4 11 17 31 29 45 l20 25 22 -29 c12 -16 32
-39 44 -52 22 -21 26 -22 74 -9 37 10 68 11 116 4 36 -5 70 -6 75 -3 14 8 119
10 122 2 1 -3 16 -1 33 7 21 9 38 28 53 59 13 25 27 48 32 51 14 9 69 -24 78
-48 9 -22 9 -22 14 3 23 103 10 178 -44 258 -34 50 -35 53 -11 45 52 -20 203
-167 279 -275 27 -37 51 -67 55 -68 12 0 -4 103 -19 127 -8 12 -16 38 -17 58
-3 34 -2 36 22 30 14 -3 58 -22 97 -41 40 -19 76 -34 80 -34 4 0 14 -8 22 -17
13 -16 13 -15 1 7 -8 14 -42 45 -74 70 -32 24 -69 54 -81 67 -12 13 -29 23
-38 23 -8 0 -15 4 -15 9 0 5 -8 11 -17 14 -10 3 -34 14 -53 25 -19 11 -60 27
-90 37 -30 10 -77 31 -105 46 -116 65 -297 117 -410 119 -5 0 -4 4 4 9 19 12
754 6 846 -6z m-979 -16 c2 -2 -56 -11 -129 -21 -142 -19 -254 -54 -277 -86
-8 -11 -19 -20 -25 -20 -6 0 -19 -16 -29 -35 -20 -37 -36 -46 -36 -19 0 38 57
108 105 128 65 28 109 38 162 37 33 0 64 6 76 14 15 10 39 13 86 10 35 -3 66
-6 67 -8z m61 7 c-3 -3 -12 -4 -19 -1 -8 3 -5 6 6 6 11 1 17 -2 13 -5z m-2255
-254 c27 -27 30 -36 25 -72 -7 -55 -28 -73 -82 -73 -89 0 -127 84 -66 146 40
40 82 39 123 -1z m2263 8 c15 -14 28 -38 32 -60 5 -32 1 -41 -26 -69 -29 -28
-36 -31 -74 -26 -48 7 -77 35 -77 76 1 80 88 128 145 79z m-902 -331 c89 -44
92 -49 127 -198 50 -210 67 -252 164 -397 71 -105 227 -172 446 -193 52 -5
145 -14 205 -20 61 -6 169 -12 240 -14 72 -2 144 -6 160 -9 17 -3 84 -12 150
-21 194 -25 256 -35 358 -61 32 -9 67 -14 80 -12 36 5 31 -25 -19 -124 -54
-106 -69 -127 -179 -245 -88 -95 -147 -137 -177 -130 -11 3 -48 -3 -81 -14
-115 -38 -204 -48 -282 -34 -155 28 -228 61 -442 202 -162 107 -220 130 -393
157 -66 10 -84 16 -80 27 10 29 4 165 -10 194 l-13 30 -14 -70 c-7 -38 -25
-95 -41 -125 -49 -100 -160 -152 -326 -153 -130 -2 -224 28 -287 92 -53 53
-89 137 -89 206 0 62 -16 56 -36 -11 -15 -53 -14 -126 2 -169 5 -11 -1 -15
-24 -15 -40 0 -199 -28 -220 -39 -9 -5 -37 -17 -62 -27 -25 -10 -64 -31 -87
-46 -23 -15 -46 -28 -51 -28 -6 0 -12 -4 -14 -8 -12 -30 -282 -178 -353 -194
-104 -24 -209 -37 -226 -28 -10 6 -33 10 -51 10 -18 0 -58 9 -87 20 -30 11
-71 20 -90 21 -50 3 -95 31 -177 113 -136 137 -249 341 -293 529 -6 26 -16 66
-21 90 -6 23 -12 52 -13 64 -2 12 -6 26 -10 29 -4 4 -7 18 -7 31 0 22 0 22 34
6 34 -16 34 -16 41 -102 8 -108 21 -159 46 -190 21 -26 83 -42 115 -31 10 4
44 10 74 13 30 4 72 10 92 15 20 6 39 8 41 6 4 -5 137 23 144 30 3 3 13 1 22
-3 10 -6 62 -3 131 5 63 8 122 15 130 14 328 -7 629 26 771 86 112 46 161 89
204 178 19 40 35 79 35 85 0 7 11 45 24 84 13 40 27 91 30 115 18 122 80 224
154 255 20 8 48 20 62 26 38 17 113 7 173 -22z m2061 -572 c-4 -8 -8 -15 -10
-15 -2 0 -4 7 -4 15 0 8 4 15 10 15 5 0 7 -7 4 -15z m-114 -62 c0 -35 -31
-123 -43 -123 -6 0 -16 -8 -23 -17 -10 -15 -28 -18 -116 -16 -57 0 -137 4
-178 8 -41 3 -109 8 -150 10 -41 3 -117 7 -168 10 -62 4 -98 3 -106 -5 -10 -7
-27 -8 -57 -1 -58 13 -231 31 -296 31 -29 0 -70 6 -90 14 -21 8 -55 17 -75 21
-47 7 -50 25 -5 25 17 0 159 0 314 0 155 0 321 4 370 9 48 5 171 17 273 26
102 9 201 20 220 25 19 4 56 8 83 9 45 1 47 0 47 -26z m-3950 7 c300 -36 518
-50 785 -49 154 0 312 4 350 8 39 5 76 5 83 1 26 -13 -171 -59 -299 -70 -68
-5 -152 -14 -186 -19 -40 -6 -76 -6 -98 0 -22 6 -102 7 -215 1 -99 -5 -251 -8
-338 -8 -146 1 -159 3 -188 23 -28 20 -64 84 -64 113 0 13 62 13 170 0z m4041
-43 c-8 -8 -11 -4 -11 14 0 33 14 47 18 19 2 -12 -1 -27 -7 -33z m-1464 -3
c-3 -3 -12 -4 -19 -1 -8 3 -5 6 6 6 11 1 17 -2 13 -5z m-582 -834 c76 -13 175
-53 175 -71 0 -6 8 -19 18 -28 10 -9 21 -24 25 -33 6 -17 8 -17 -194 -48 -92
-14 -195 -12 -329 5 -130 17 -153 23 -145 35 3 5 1 11 -5 15 -21 13 -10 35 18
35 19 0 23 3 13 9 -21 13 65 60 135 73 145 26 168 27 289 8z m390 -246 c22 -8
63 -19 92 -24 28 -5 70 -18 94 -29 24 -12 52 -21 64 -21 11 0 25 -4 31 -8 5
-5 28 -14 52 -21 23 -6 42 -17 42 -23 0 -25 -53 -153 -77 -188 -34 -46 -129
-119 -179 -136 -22 -8 -68 -14 -104 -14 -55 0 -76 6 -135 36 -38 19 -79 44
-90 54 -11 10 -42 29 -70 41 -44 20 -70 23 -207 27 -185 4 -248 -9 -331 -72
-81 -62 -146 -86 -228 -86 -63 0 -79 4 -137 36 -114 62 -163 121 -201 244 -12
36 -21 66 -21 67 0 0 33 11 73 22 39 12 95 31 122 41 28 11 70 20 95 22 25 1
63 10 85 19 43 19 90 19 425 5 112 -5 221 -2 340 7 228 19 219 18 265 1z"/>
<path d="M2348 4509 c-123 -18 -284 -141 -341 -262 -33 -70 -34 -108 -4 -143
32 -37 60 -33 147 20 105 65 166 86 253 86 149 -1 374 -41 590 -106 131 -40
169 -44 212 -23 58 28 82 161 40 225 -47 72 -419 178 -715 204 -63 5 -117 9
-120 9 -3 -1 -31 -5 -62 -10z"/>
<path d="M5175 4509 c-243 -21 -603 -120 -679 -186 -32 -28 -44 -100 -27 -163
15 -55 31 -74 77 -88 31 -9 53 -6 172 28 273 76 393 99 567 107 l120 5 95 -49
c52 -28 114 -61 137 -74 l42 -24 28 21 c22 17 29 30 31 67 4 60 -29 125 -104
207 -80 86 -169 135 -268 149 -42 6 -80 10 -84 10 -4 -1 -52 -6 -107 -10z"/>
<path d="M3538 1293 c7 -3 16 -2 19 1 4 3 -2 6 -13 5 -11 0 -14 -3 -6 -6z"/>
<path d="M3592 1280 c52 -33 395 -37 503 -6 64 18 50 19 -52 2 -140 -22 -237
-20 -428 9 -31 5 -36 4 -23 -5z"/>
</g>
</svg>
